<svg width="28" height="28" viewBox="0 0 28 28" fill="none" xmlns="http://www.w3.org/2000/svg">
<path fill-rule="evenodd" clip-rule="evenodd" d="M9.62501 7C9.62501 6.51675 10.0168 6.125 10.5 6.125H17.5C17.9833 6.125 18.375 6.51675 18.375 7V10.5C18.375 10.9832 17.9833 11.375 17.5 11.375H10.5C10.0168 11.375 9.62501 10.9832 9.62501 10.5V7ZM11.375 7.875V9.625H16.625V7.875H11.375Z" fill="#0061B8"/>
<path fill-rule="evenodd" clip-rule="evenodd" d="M8.16668 2.625C6.39476 2.625 4.95834 4.06142 4.95834 5.83333V22.1667C4.95834 23.9386 6.39476 25.375 8.16668 25.375H22.1667C22.4699 25.375 22.7516 25.218 22.911 24.96C23.0704 24.7021 23.0849 24.3799 22.9493 24.1087L22.8261 23.8624C22.2924 22.7949 22.2924 21.5384 22.8261 20.471L22.9493 20.2246C23.0108 20.1016 23.0415 19.9681 23.0417 19.8348V19.7167V4.08333C23.0417 3.27792 22.3888 2.625 21.5833 2.625H8.16668ZM21.2917 4.375H8.16668C7.36126 4.375 6.70834 5.02792 6.70834 5.83333V19.3082C7.14588 19.0845 7.64155 18.9583 8.16668 18.9583H21.2917V4.375ZM20.8711 23.625C20.6107 22.6705 20.6107 21.6628 20.8711 20.7083H8.16668C7.36126 20.7083 6.70834 21.3612 6.70834 22.1667C6.70834 22.9721 7.36126 23.625 8.16668 23.625H20.8711Z" fill="#0061B8"/>
</svg>
