<svg width="28" height="28" viewBox="0 0 28 28" fill="none" xmlns="http://www.w3.org/2000/svg">
<path fill-rule="evenodd" clip-rule="evenodd" d="M13.7938 5.13194C12.04 3.37823 9.35466 3.20468 7.18349 4.33764C6.9365 4.46652 6.76565 4.70532 6.72341 4.98069C6.68116 5.25606 6.77257 5.5351 6.96957 5.73209L9.59072 8.35325C9.41649 8.6139 9.21867 8.8822 9.05046 9.05042C8.88224 9.21863 8.61394 9.41645 8.35329 9.59068L5.73204 6.96944C5.53506 6.77245 5.25604 6.68104 4.98067 6.72327C4.70531 6.7655 4.46651 6.93634 4.33762 7.18331C3.20442 9.35456 3.37787 12.0402 5.1317 13.794C6.56187 15.2242 8.61801 15.6039 10.501 15.0798L17.5259 22.7737C18.4751 23.8133 20.0926 24.1841 21.3734 23.3197C21.7419 23.0709 22.1383 22.7737 22.4559 22.4561C22.7735 22.1386 23.0707 21.7422 23.3194 21.3736C24.1839 20.0928 23.8131 18.4753 22.7735 17.5261L15.0795 10.5012C15.6036 8.61826 15.2239 6.56211 13.7938 5.13194ZM11.005 7.29265L9.17439 5.46204C10.4422 5.1945 11.7037 5.51681 12.5563 6.36938C13.5669 7.37995 13.8317 8.95698 13.255 10.4502C13.125 10.7867 13.2148 11.1684 13.4812 11.4116L21.5935 18.8185C22.0962 19.2775 22.1729 19.9442 21.8689 20.3946C21.6471 20.7233 21.4219 21.0153 21.2185 21.2187L21.8372 21.8374L21.2184 21.2187C21.015 21.4221 20.723 21.6473 20.3944 21.8692C19.944 22.1731 19.2772 22.0965 18.8182 21.5937L11.4114 13.4815C11.1681 13.2151 10.7864 13.1252 10.4499 13.2552C8.95673 13.8319 7.3797 13.5671 6.36914 12.5566C5.51646 11.7039 5.19417 10.4422 5.46189 9.17416L7.29269 11.005C7.75267 11.4649 8.48799 11.58 9.07315 11.2098C9.39773 11.0045 9.92327 10.6525 10.2879 10.2879C10.6525 9.92323 11.0046 9.39769 11.2099 9.07311L10.4704 8.60536L11.2099 9.07311C11.58 8.48795 11.465 7.75263 11.005 7.29265ZM19.7297 18.9446C19.2464 18.9446 18.8547 19.3364 18.8547 19.8196C18.8547 20.3029 19.2464 20.6946 19.7297 20.6946H19.7413C20.2246 20.6946 20.6163 20.3029 20.6163 19.8196C20.6163 19.3364 20.2246 18.9446 19.7413 18.9446H19.7297Z" fill="#0061B8"/>
</svg>
